<mxfile host="app.diagrams.net" modified="2023-09-11T17:50:36.657Z" agent="Mozilla/5.0 (X11; Linux x86_64) AppleWebKit/537.36 (KHTML, like Gecko) Chrome/116.0.0.0 Safari/537.36" etag="Krirmtp1NH0-EzC_DrbK" version="21.7.4" type="github">
  <diagram name="Page-1" id="bdbuV-b_xb-an0o334gR">
    <mxGraphModel dx="1674" dy="1004" grid="1" gridSize="10" guides="1" tooltips="1" connect="1" arrows="1" fold="1" page="1" pageScale="1" pageWidth="850" pageHeight="1100" math="0" shadow="0">
      <root>
        <mxCell id="0" />
        <mxCell id="1" parent="0" />
        <mxCell id="d_lUojSAGgCnVOfPiX0--1" value="&lt;font style=&quot;font-size: 18px;&quot; color=&quot;#ffffff&quot;&gt;Kepler&lt;/font&gt;" style="shape=document;whiteSpace=wrap;html=1;boundedLbl=1;fillColor=#000000;" vertex="1" parent="1">
          <mxGeometry x="270" y="80" width="120" height="80" as="geometry" />
        </mxCell>
      </root>
    </mxGraphModel>
  </diagram>
</mxfile>
